# xmcd CD database file
#
# Track frame offsets:
#	150
#	14785
#	31913
#	42149
#	54883
#	75935
#	91956
#
# Disc length: 1441 seconds
#
# Revision: 0
# Processed by: cddbd v1.5.2PL0 Copyright (c) Steve Scherf et al.
# Submitted via: CDex 1.51
#
DISCID=44059f07
DTITLE=Ida - My Fair, My Dark
DYEAR=2008
DGENRE=Blues
TTITLE0=My Fair, My Dark
TTITLE1=Don't Wreck It
TTITLE2=Road to Ruin
TTITLE3=The Pain of Loving You
TTITLE4=Late Blues (Live)
TTITLE5=Still Life
TTITLE6=The Time Has Come
EXTD=YEAR: 2008
EXTT0=
EXTT1=
EXTT2=
EXTT3=
EXTT4=
EXTT5=
EXTT6=
PLAYORDER=
